<svg xmlns="http://www.w3.org/2000/svg" viewBox="0 0 200 400" fill="none">
  <!-- Elegant botanical silhouette - lavender sprigs -->
  <g opacity="0.6" stroke="#d4af37" stroke-width="1" fill="none">
    <!-- Main stem -->
    <path d="M100 380 Q95 300 100 200 Q105 100 95 20"/>
    <!-- Left branches with leaves -->
    <path d="M100 350 Q70 340 50 360"/>
    <path d="M100 320 Q60 300 40 320"/>
    <path d="M100 280 Q55 255 35 275"/>
    <path d="M100 240 Q50 210 30 230"/>
    <path d="M100 200 Q55 170 40 190"/>
    <path d="M100 160 Q60 130 50 150"/>
    <path d="M100 120 Q70 95 60 110"/>
    <path d="M100 80 Q75 60 70 75"/>
    <!-- Right branches with leaves -->
    <path d="M100 340 Q130 325 150 345"/>
    <path d="M100 300 Q140 275 160 295"/>
    <path d="M100 260 Q145 230 165 250"/>
    <path d="M100 220 Q150 185 170 205"/>
    <path d="M100 180 Q145 145 160 165"/>
    <path d="M100 140 Q135 110 145 130"/>
    <path d="M100 100 Q125 80 130 95"/>
    <!-- Flower buds at top -->
    <ellipse cx="95" cy="25" rx="4" ry="8"/>
    <ellipse cx="90" cy="40" rx="3" ry="6"/>
    <ellipse cx="100" cy="35" rx="3" ry="7"/>
    <ellipse cx="105" cy="45" rx="3" ry="6"/>
  </g>
</svg>
